HIERARCHY
ROOT Hips
{
	OFFSET 0.0000 0.0000 0.0000
	CHANNELS 6 Xposition Yposition Zposition Zrotation Xrotation Yrotation
	JOINT Ab
	{
		OFFSET -0.0000 8.1305 -0.0000
		CHANNELS 3 Zrotation Xrotation Yrotation
		JOINT Chest
		{
			OFFSET -0.0000 26.2902 -0.0000
			CHANNELS 3 Zrotation Xrotation Yrotation
			JOINT Neck
			{
				OFFSET -0.0000 26.2902 0.0000
				CHANNELS 3 Zrotation Xrotation Yrotation
				JOINT Head
				{
					OFFSET -0.0000 10.8167 0.0000
					CHANNELS 3 Zrotation Xrotation Yrotation
					End Site
					{
						OFFSET -0.0000 16.7167 0.0000
					}
				}
			}
			JOINT LeftCollar
			{
				OFFSET -0.0000 26.2902 0.0000
				CHANNELS 3 Zrotation Xrotation Yrotation
				JOINT LeftShoulder
				{
					OFFSET 19.6667 -0.0000 0.0000
					CHANNELS 3 Zrotation Xrotation Yrotation
					JOINT LeftElbow
					{
						OFFSET 27.2190 0.0000 0.0000
						CHANNELS 3 Zrotation Xrotation Yrotation
						JOINT LeftWrist
						{
							OFFSET 30.7431 0.0000 0.0000
							CHANNELS 3 Zrotation Xrotation Yrotation
							End Site
							{
								OFFSET 0.0000 -14.7500 0.0000
							}
						}
					}
				}
			}
			JOINT RightCollar
			{
				OFFSET -0.0000 26.2902 0.0000
				CHANNELS 3 Zrotation Xrotation Yrotation
				JOINT RightShoulder
				{
					OFFSET -19.6667 0.0000 0.0000
					CHANNELS 3 Zrotation Xrotation Yrotation
					JOINT RightElbow
					{
						OFFSET -27.2190 0.0000 0.0000
						CHANNELS 3 Zrotation Xrotation Yrotation
						JOINT RightWrist
						{
							OFFSET -30.7431 0.0000 0.0000
							CHANNELS 3 Zrotation Xrotation Yrotation
							End Site
							{
								OFFSET -0.0000 -14.7500 0.0000
							}
						}
					}
				}
			}
		}
	}
	JOINT LeftHip
	{
		OFFSET 11.8000 0.0000 0.0000
		CHANNELS 3 Zrotation Xrotation Yrotation
		JOINT LeftKnee
		{
			OFFSET -0.0000 -39.7832 0.0000
			CHANNELS 3 Zrotation Xrotation Yrotation
			JOINT LeftAnkle
			{
				OFFSET -0.0000 -41.7317 0.0000
				CHANNELS 3 Zrotation Xrotation Yrotation
				End Site
				{
					OFFSET -0.0000 -4.9167 16.7167
				}
			}
		}
	}
	JOINT RightHip
	{
		OFFSET -11.8000 0.0000 0.0000
		CHANNELS 3 Zrotation Xrotation Yrotation
		JOINT RightKnee
		{
			OFFSET -0.0000 -39.7832 0.0000
			CHANNELS 3 Zrotation Xrotation Yrotation
			JOINT RightAnkle
			{
				OFFSET -0.0000 -41.7317 0.0000
				CHANNELS 3 Zrotation Xrotation Yrotation
				End Site
				{
					OFFSET -0.0000 -4.9167 16.7167
				}
			}
		}
	}
}
MOTION
Frames: 11
Frame Time: 0.010000
-6.9756 92.7545 106.4970 355.0815 348.6608 195.2284 0.7640 349.4993 0.3295 3.5746 15.7421 359.7541 351.8766 350.2150 352.1205 6.9407 14.2506 351.9518 340.3598 357.5654 14.0795 332.3384 64.1091 323.5985 12.8646 355.5221 321.8477 89.0292 353.1154 351.9936 26.2013 356.2640 344.0001 34.6619 48.2761 15.4984 337.8353 351.8354 40.1965 267.9517 354.0288 6.1535 350.8888 352.0610 0.6602 356.9163 9.0071 5.1690 357.4417 352.7609 15.2078 349.2288 346.4918 359.5379 13.5595 25.6635 19.2007 348.1939 336.3475 311.4051 
-7.1249 92.7487 106.3247 355.0760 348.8033 195.0914 0.6811 349.4931 0.2851 3.4431 15.7743 359.7383 351.8935 350.3345 352.1505 7.0364 14.1541 351.9639 340.3594 357.5365 14.0553 331.9670 63.9361 324.0147 12.8671 355.5556 322.1031 88.8674 353.0918 351.4632 26.2077 356.2210 343.7885 34.6674 48.4703 15.6170 337.7727 351.8198 40.0124 268.0882 354.0453 5.8646 350.8396 352.4009 0.8277 356.9594 8.8426 5.3034 357.4245 352.7848 15.1285 349.2716 346.6362 359.6237 13.4747 25.8381 19.2796 348.1722 336.2642 311.3448 
-7.2688 92.7357 106.1714 355.0976 348.9012 194.9732 0.5630 349.4888 0.2653 3.4032 15.7207 359.7424 351.8432 350.4550 352.1858 7.0870 14.1535 351.9894 340.2954 357.5558 14.0410 331.9906 63.8910 324.0546 12.8027 355.5701 322.0975 90.7915 353.6802 352.8889 26.1551 356.1951 343.6893 35.0824 48.5021 15.2861 337.7045 351.8079 39.9268 268.1514 354.0373 5.9147 350.8229 352.6716 0.9794 356.9680 8.7069 5.4928 357.5189 352.8146 14.9535 349.3347 346.7112 359.6921 13.3737 26.0478 19.3772 348.1519 336.1487 311.2743 
-7.4066 92.7230 105.9993 355.1370 349.0816 194.8803 0.5096 349.5631 0.2282 3.2833 15.6618 359.7104 351.9234 350.5838 352.2215 7.0455 14.1629 352.0125 340.3016 357.5285 14.0335 331.8940 63.8061 324.1807 12.8777 355.5622 322.2771 90.7480 353.8666 353.3329 26.1835 356.1576 343.6031 35.4275 48.4998 14.9082 337.6822 351.8342 39.9222 268.1641 354.0168 5.9045 350.8809 353.0513 1.2068 356.9462 8.5322 5.5246 357.6041 352.8409 14.8176 349.4574 346.9109 359.8817 13.2792 26.1732 19.4055 348.1547 336.0876 311.2109 
-7.5358 92.7105 105.8195 355.2689 349.2032 194.9159 0.4767 349.5078 0.0931 3.1971 15.6441 359.6815 352.1233 350.7326 352.2395 6.9093 14.1738 352.0183 340.3312 357.5766 13.9404 331.7954 63.7402 324.3446 12.8383 355.6357 322.5215 90.3329 353.6473 352.6422 26.0333 356.1517 343.2714 35.8354 48.8092 14.8751 337.4553 351.7198 39.7056 268.2003 354.0225 5.6416 351.0362 353.3251 1.3706 356.8789 8.4309 5.5022 357.6098 352.8095 14.6968 349.6459 347.0953 359.9408 13.1496 26.2586 19.4999 348.0879 336.0543 311.0809 
-7.6763 92.6947 105.6561 355.3305 349.3234 194.8449 0.4141 349.5368 0.0998 3.1350 15.5656 359.6158 351.9614 350.8427 352.3331 7.0362 14.2442 352.1038 340.2691 357.5612 14.0864 331.8922 63.6464 324.2667 12.8813 355.6460 322.6519 90.4362 353.8643 353.0574 25.9895 356.1441 343.3111 36.2971 48.8378 14.3804 337.4072 351.7432 39.7013 268.2973 353.7490 5.3420 351.1307 353.6083 1.5712 356.8098 8.3067 5.7356 357.8674 352.8023 14.3311 349.7890 347.1844 0.1126 13.0413 26.4667 19.5294 348.0152 335.9139 310.8972 
-7.8178 92.6815 105.5156 355.3760 349.3921 194.7824 0.3300 349.5442 0.0252 3.0307 15.4683 359.6429 352.0409 350.9909 352.3265 6.9364 14.2860 352.0835 340.3052 357.5498 14.0085 331.7625 63.6143 324.4514 12.9361 355.6541 322.7124 90.1397 354.0010 352.8028 26.0153 356.0857 343.1614 36.5646 48.9040 14.0832 337.3237 351.7261 39.6223 268.3322 353.7216 5.2064 351.2071 353.8211 1.7611 356.7185 8.2430 5.6264 357.8551 352.7299 14.2835 349.8788 347.2119 0.2933 12.9451 26.6946 19.6221 348.0376 335.7926 310.7295 
-7.9665 92.6551 105.3540 355.4035 349.5112 194.7102 0.2431 349.5792 359.9978 2.9438 15.3845 359.6069 351.9305 351.1867 352.3857 7.0731 14.2759 352.1257 340.3219 357.5186 14.0670 331.7680 63.6396 324.4576 13.0214 355.6143 322.8140 89.8064 353.6893 352.5514 26.0115 356.1161 343.1951 37.0115 48.8244 13.5575 337.4263 351.7659 39.7120 268.2646 353.8376 5.1916 351.2849 354.1266 1.9350 356.6027 8.1172 5.6696 357.6572 352.6932 14.1615 349.9557 347.2880 0.5052 12.9179 26.9232 19.7271 347.8454 335.7922 310.3972 
-8.1095 92.6250 105.2080 355.4403 349.6162 194.6256 0.1355 349.6133 359.9603 2.8842 15.3432 359.6091 351.9077 351.2021 352.4071 7.0680 14.4347 352.1356 340.3201 357.5470 14.1176 331.8743 63.5347 324.3526 12.8805 355.6603 322.7316 90.2788 353.8879 352.9378 25.9722 356.0866 343.1350 37.3950 48.8867 13.2343 337.3100 351.7218 39.6242 268.4485 353.6903 5.4189 351.3778 354.4048 2.1536 356.4807 8.0056 5.5610 357.8088 352.6839 14.1152 350.0515 347.2730 0.7975 12.9195 27.2871 19.6419 347.7775 335.6536 310.1985 
-8.2538 92.5893 105.0657 355.4525 349.6957 194.5465 0.0381 349.6226 359.9198 2.7603 15.2955 359.5686 351.8652 351.3628 352.4523 7.1387 14.4281 352.1656 340.3368 357.5104 14.1801 331.9686 63.4577 324.3078 12.9726 355.6255 322.7123 89.8131 353.7164 352.7818 25.9493 356.0643 343.0644 37.6640 48.9956 12.9861 337.3227 351.7579 39.5973 268.3819 353.6185 5.4485 351.4244 354.6671 2.3822 356.3833 7.8840 5.5086 358.0087 352.6833 13.9869 350.1055 347.2127 1.0190 12.9221 27.7142 19.6121 347.6709 335.5116 309.9837 
-8.3988 92.5443 104.9286 355.4635 349.7744 194.4614 359.9356 349.5891 359.8560 2.6586 15.3368 359.4971 351.8419 351.4900 352.5323 7.1571 14.4305 352.2371 340.3240 357.5361 14.2317 331.9836 63.2343 324.3844 12.8208 355.6708 322.4835 90.0274 353.9271 352.6023 25.9811 356.0840 343.1817 38.0358 48.9383 12.5613 337.3658 351.7568 39.6214 268.4463 353.6759 5.3679 351.4629 354.9380 2.5375 356.2822 7.7439 5.4108 358.0473 352.6291 13.9628 350.1636 347.0880 1.1645 12.8768 28.2645 19.6234 347.6258 335.3550 309.8160 
